<svg width="40" height="40" viewBox="0 0 40 40" fill="none" xmlns="http://www.w3.org/2000/svg">
<rect width="40" height="40" rx="8" fill="#F77D26"/>
<g transform="translate(10,10)">
<path d="M8.94387 12.1562C9.68996 12.3533 11.3205 12.7839 11.5797 11.7423C11.8453 10.6772 10.264 10.3223 9.49237 10.1492C9.40612 10.1298 9.33004 10.1128 9.26771 10.0972L8.76562 12.1099C8.81679 12.1226 8.87679 12.1385 8.94387 12.1562Z" fill="#F8F8F7"/>
<path d="M9.64992 9.21534C10.2719 9.38134 11.6288 9.74342 11.8651 8.79667C12.1064 7.82826 10.7877 7.53634 10.1437 7.39378C10.0712 7.37774 10.0073 7.36359 9.95517 7.35059L9.5 9.17609C9.543 9.18684 9.59342 9.20025 9.64992 9.21534Z" fill="#F8F8F7"/>
<path fill-rule="evenodd" clip-rule="evenodd" d="M7.98391 18.0839C12.4487 19.1972 16.9703 16.4803 18.0833 12.016C19.1963 7.55148 16.4796 3.02913 12.0151 1.91612C7.55162 0.803107 3.03005 3.52027 1.91757 7.98506C0.804033 12.4491 3.52093 16.9709 7.98391 18.0839ZM11.8369 6.7104C12.9913 7.10805 13.8355 7.70414 13.6696 8.813C13.5496 9.62466 13.0996 10.0177 12.5022 10.1554C13.3225 10.5825 13.74 11.2374 13.3423 12.3728C12.8488 13.783 11.6765 13.902 10.1174 13.6069L9.73897 15.1233L8.82463 14.8955L9.19805 13.3994C8.96113 13.3405 8.71897 13.278 8.46947 13.2103L8.09472 14.7134L7.18144 14.4856L7.55982 12.9663C7.47447 12.9445 7.38856 12.9221 7.30205 12.8995C7.17215 12.8657 7.04087 12.8314 6.90801 12.7981L5.71818 12.5015L6.17208 11.4549C6.17208 11.4549 6.84577 11.6341 6.83666 11.6207C7.09551 11.6848 7.21035 11.5161 7.25566 11.4036L7.85358 9.0065C7.87603 9.01183 7.89802 9.01741 7.91923 9.02266C7.92975 9.02533 7.94008 9.02791 7.95019 9.03041C7.91373 9.01583 7.88066 9.0065 7.85513 9L8.28169 7.28877C8.29289 7.0945 8.22597 6.84945 7.85566 6.75701C7.86997 6.74737 7.1916 6.5919 7.1916 6.5919L7.43482 5.61535L8.69572 5.9302L8.69472 5.93488C8.8843 5.98202 9.07963 6.02681 9.27855 6.07212L9.6533 4.57057L10.567 4.79844L10.1999 6.27055C10.4452 6.32655 10.692 6.38305 10.9325 6.44295L11.297 4.98046L12.2113 5.20833L11.8369 6.7104Z" fill="#F8F8F7"/>
</g>
</svg>
